<svg width="49" height="48" viewBox="0 0 49 48" version="1.1" xmlns="http://www.w3.org/2000/svg"><title>Mask</title><g id="UI" stroke="none" stroke-width="1" fill="none" fill-rule="evenodd"><g id="Lander-#3" transform="translate(-1336 -3010)" fill="#2D3767"><g id="Case-studies" transform="translate(-152 2672)"><g id="Group-12" transform="translate(214 337)"><path d="M1296.879 2.121l-.162.166a3 3 0 0 0-.002 4.24l15.316 15.348H1277a3 3 0 0 0-3 3v.25a3 3 0 0 0 3 3h35.031l-15.316 15.347a3 3 0 0 0 .002 4.241l.162.166a3 3 0 0 0 4.242 0l20.758-20.758a3 3 0 0 0 0-4.242L1301.12 2.12a3 3 0 0 0-4.242 0z" id="Mask"/></g></g></g></g></svg>