<svg width="49" height="48" viewBox="0 0 49 48" version="1.1" xmlns="http://www.w3.org/2000/svg"><title>Mask Copy</title><g id="UI" stroke="none" stroke-width="1" fill="none" fill-rule="evenodd"><g id="Lander-#3" transform="translate(-63 -3010)" fill="#2D3767"><g id="Case-studies" transform="translate(-152 2672)"><g id="Group-12" transform="translate(214 337)"><path d="M22.879 2.121l-.162.166a3 3 0 0 0-.002 4.24l15.316 15.348H3a3 3 0 0 0-3 3v.25a3 3 0 0 0 3 3h35.031L22.715 43.472a3 3 0 0 0 .002 4.241l.162.166a3 3 0 0 0 4.242 0L47.88 27.12a3 3 0 0 0 0-4.242L27.12 2.12a3 3 0 0 0-4.242 0z" id="Mask-Copy" transform="matrix(-1 0 0 1 50 0)"/></g></g></g></g></svg>