<svg width="49" height="37" viewBox="0 0 49 37" version="1.1" xmlns="http://www.w3.org/2000/svg"><title>“</title><g id="UI" stroke="none" stroke-width="1" fill="none" fill-rule="evenodd"><g id="Case-studies-single-#2" transform="translate(-621 -1065)" fill="#55CCD7"><g id="Group" transform="translate(132 974)"><path d="M538 116.857C538 123 533.202 128 527.135 128c-7.337 0-12.135-5.714-12.135-14.143 0-16.714 8.184-22.714 22.436-22.857v7c-4.516 0-7.761 1.143-9.737 2.857-2.116 1.572-3.104 3.857-3.386 6 .282-.286 1.693-.714 2.822-.714 6.632 0 10.865 4.714 10.865 10.714zm-26 0C512 123 507.202 128 501.135 128c-7.337 0-12.135-5.714-12.135-14.143 0-16.714 8.184-22.714 22.436-22.857v7c-4.516 0-7.761 1.143-9.737 2.857-2.116 1.572-3.104 3.857-3.386 6 .282-.286 1.693-.714 2.822-.714 6.632 0 10.865 4.714 10.865 10.714z" id="“"/></g></g></g></svg>